<svg xmlns="http://www.w3.org/2000/svg" xmlns:svg="http://www.w3.org/2000/svg" id="svg362" width="210mm" height="297mm" version="1.1" viewBox="0 0 210 297"><defs id="defs356"><linearGradient id="SVGID_1_" x1="808.221" x2="808.221" y1="421.545" y2="281.681" gradientUnits="userSpaceOnUse"><stop id="stop179" offset="0" stop-color="#5a6a83"/><stop id="stop181" offset="1" stop-color="#fff"/></linearGradient><linearGradient id="SVGID_2_" x1="741.385" x2="741.385" y1="556.178" y2="367.841" gradientUnits="userSpaceOnUse"><stop id="stop186" offset="0" stop-color="#5a6a83"/><stop id="stop188" offset="1" stop-color="#fff"/></linearGradient><linearGradient id="SVGID_3_" x1="808.221" x2="942" y1="462.009" y2="462.009" gradientUnits="userSpaceOnUse"><stop id="stop193" offset="0" stop-color="#9aa3a7"/><stop id="stop195" offset="1" stop-color="#fff"/></linearGradient><linearGradient id="SVGID_4_" x1="808.221" x2="674.549" y1="271.057" y2="271.057" gradientUnits="userSpaceOnUse"><stop id="stop200" offset="0" stop-color="#9aa3a7"/><stop id="stop202" offset="1" stop-color="#fff"/></linearGradient><linearGradient id="SVGID_5_" x1="808.221" x2="941.893" y1="271.057" y2="271.057" gradientUnits="userSpaceOnUse"><stop id="stop207" offset="0" stop-color="#9aa3a7"/><stop id="stop209" offset="1" stop-color="#fff"/></linearGradient><linearGradient id="linearGradient-1" x1="148.636" x2="148.636" y1="1.125" y2="91.96" gradientTransform="scale(0.74882432,1.3354267)" gradientUnits="userSpaceOnUse"><stop id="stop2" offset="0%" stop-color="#0994DC"/><stop id="stop4" offset="35.001%" stop-color="#66CEF5"/><stop id="stop6" offset="35.001%" stop-color="#66CEF5"/><stop id="stop8" offset="84.616%" stop-color="#127BCA"/><stop id="stop10" offset="84.616%" stop-color="#127BCA"/><stop id="stop12" offset="100%" stop-color="#127BCA"/></linearGradient><linearGradient id="linearGradient-2" x1="153.025" x2="153.025" y1="-1.189" y2="93.05" gradientTransform="scale(0.75757096,1.3200084)" gradientUnits="userSpaceOnUse"><stop id="stop15" offset="0%" stop-color="#0E76BC"/><stop id="stop17" offset="36%" stop-color="#36AEE8"/><stop id="stop19" offset="36%" stop-color="#36AEE8"/><stop id="stop21" offset="84.616%" stop-color="#00ADEF"/><stop id="stop23" offset="84.616%" stop-color="#00ADEF"/><stop id="stop25" offset="100%" stop-color="#00ADEF"/></linearGradient><linearGradient id="linearGradient-3" x1="192.154" x2="192.154" y1="70.346" y2="-2.247" gradientTransform="scale(0.73341404,1.3634863)" gradientUnits="userSpaceOnUse"><stop id="stop28" offset="0%" stop-color="#1C63B7"/><stop id="stop30" offset="50%" stop-color="#33BDF2"/><stop id="stop32" offset="100%" stop-color="#33BDF2" stop-opacity=".42"/></linearGradient><linearGradient id="linearGradient-4" x1="186.453" x2="186.453" y1="-10.218" y2="82.895" gradientTransform="scale(0.72094583,1.3870668)" gradientUnits="userSpaceOnUse"><stop id="stop35" offset="0%" stop-color="#166AB8"/><stop id="stop37" offset="39.999%" stop-color="#36AEE8"/><stop id="stop39" offset="39.999%" stop-color="#36AEE8"/><stop id="stop41" offset="84.616%" stop-color="#0798DD"/><stop id="stop43" offset="84.616%" stop-color="#0798DD"/><stop id="stop45" offset="100%" stop-color="#0798DD"/></linearGradient><linearGradient id="linearGradient-5" x1="156.075" x2="156.075" y1="-10.742" y2="98.585" gradientTransform="scale(0.79604186,1.2562154)" gradientUnits="userSpaceOnUse"><stop id="stop48" offset="0%" stop-color="#124379"/><stop id="stop50" offset="39%" stop-color="#1487CB"/><stop id="stop52" offset="39%" stop-color="#1487CB"/><stop id="stop54" offset="78.023%" stop-color="#165197"/><stop id="stop56" offset="78.023%" stop-color="#165197"/><stop id="stop58" offset="100%" stop-color="#165197"/></linearGradient><linearGradient id="linearGradient-6" x1="87.176" x2="111.68" y1="22.715" y2="22.715" gradientTransform="scale(0.7924371,1.2619298)" gradientUnits="userSpaceOnUse"><stop id="stop61" offset="0%" stop-color="#33BDF2" stop-opacity=".698"/><stop id="stop63" offset="100%" stop-color="#1DACD8"/></linearGradient><linearGradient id="linearGradient-7" x1="239.977" x2="239.977" y1="83.677" y2="-2.673" gradientTransform="scale(0.89555689,1.1166236)" gradientUnits="userSpaceOnUse"><stop id="stop66" offset="0%" stop-color="#136AB4"/><stop id="stop68" offset="60%" stop-color="#59CAF5" stop-opacity=".549"/><stop id="stop70" offset="100%" stop-color="#59CAF5" stop-opacity=".235"/></linearGradient><linearGradient id="linearGradient-8" x1=".207" x2="84.716" y1="44.065" y2="44.065" gradientTransform="scale(0.85224268,1.1733747)" gradientUnits="userSpaceOnUse"><stop id="stop73" offset="0%" stop-color="#05A1E6" stop-opacity=".247"/><stop id="stop75" offset="100%" stop-color="#05A1E6"/></linearGradient><linearGradient id="linearGradient-9" x1="49.151" x2="49.151" y1="78.142" y2="-2.333" gradientTransform="scale(0.81513755,1.2267868)" gradientUnits="userSpaceOnUse"><stop id="stop78" offset="0%" stop-color="#318ED5"/><stop id="stop80" offset="100%" stop-color="#38A7E4"/></linearGradient><linearGradient id="linearGradient-10" x1="51.798" x2="51.798" y1="85.96" y2=".218" gradientTransform="scale(0.89345663,1.1192485)" gradientUnits="userSpaceOnUse"><stop id="stop83" offset="0%" stop-color="#05A1E6"/><stop id="stop85" offset="100%" stop-color="#05A1E6" stop-opacity=".549"/></linearGradient><linearGradient id="linearGradient-11" x1="63.919" x2="63.919" y1="81.367" y2="16.106" gradientTransform="scale(0.80475828,1.2426091)" gradientUnits="userSpaceOnUse"><stop id="stop88" offset="0%" stop-color="#1959A6"/><stop id="stop90" offset="50%" stop-color="#05A1E6"/><stop id="stop92" offset="50%" stop-color="#05A1E6"/><stop id="stop94" offset="91.759%" stop-color="#7EC5EA"/><stop id="stop96" offset="100%" stop-color="#7EC5EA"/></linearGradient><linearGradient id="linearGradient-12" x1="63.664" x2="45.569" y1="82.189" y2="6.853" gradientTransform="scale(0.85678149,1.1671587)" gradientUnits="userSpaceOnUse"><stop id="stop99" offset="0%" stop-color="#165096"/><stop id="stop101" offset="100%" stop-color="#0D82CA"/></linearGradient><linearGradient id="linearGradient-13" x1="262.199" x2="262.199" y1="34.96" y2=".189" gradientTransform="scale(0.75668744,1.3215496)" gradientUnits="userSpaceOnUse"><stop id="stop104" offset="0%" stop-color="#05A1E6"/><stop id="stop106" offset="87.363%" stop-color="#0495D6"/><stop id="stop108" offset="100%" stop-color="#0495D6"/></linearGradient><linearGradient id="linearGradient-14" x1="278.127" x2="254.507" y1="-3.162" y2="80.654" gradientTransform="scale(0.79101057,1.2642056)" gradientUnits="userSpaceOnUse"><stop id="stop111" offset="0%" stop-color="#38A7E4" stop-opacity=".329"/><stop id="stop113" offset="96.153%" stop-color="#0E88D3"/><stop id="stop115" offset="96.153%" stop-color="#0E88D3"/><stop id="stop117" offset="100%" stop-color="#0E88D3"/></linearGradient><linearGradient id="linearGradient-15" x1="240.171" x2="240.171" y1="-.236" y2="84.611" gradientTransform="scale(0.84637541,1.1815088)" gradientUnits="userSpaceOnUse"><stop id="stop120" offset="0%" stop-color="#168CD4"/><stop id="stop122" offset="50%" stop-color="#1C87CC"/><stop id="stop124" offset="100%" stop-color="#154B8D"/></linearGradient><linearGradient id="linearGradient-16" x1="27.284" x2="35.639" y1="30.073" y2="3.601" gradientTransform="scale(2.7638879,0.36180917)" gradientUnits="userSpaceOnUse"><stop id="stop127" offset="0%" stop-color="#97D6EE"/><stop id="stop129" offset="70.329%" stop-color="#55C1EA"/><stop id="stop131" offset="100%" stop-color="#55C1EA"/></linearGradient><linearGradient id="linearGradient-17" x1="47.195" x2="56.892" y1="4.923" y2="20.472" gradientTransform="scale(1.8807336,0.5317074)" gradientUnits="userSpaceOnUse"><stop id="stop134" offset="0%" stop-color="#7ACCEC"/><stop id="stop136" offset="100%" stop-color="#3FB7ED"/></linearGradient><linearGradient id="linearGradient-18" x1="236.13" x2="236.13" y1="4.229" y2="83.003" gradientTransform="scale(0.80338875,1.2447274)" gradientUnits="userSpaceOnUse"><stop id="stop139" offset="0%" stop-color="#1DA7E7"/><stop id="stop141" offset="100%" stop-color="#37ABE7" stop-opacity="0"/></linearGradient></defs><metadata id="metadata359"/><g id="layer1"><g id="Logo" transform="matrix(0.26458333,0,0,0.26458333,-122.37925,11.009706)"><linearGradient id="linearGradient320" x1="808.221" x2="808.221" y1="421.545" y2="281.681" gradientUnits="userSpaceOnUse"><stop id="stop316" offset="0" stop-color="#5a6a83"/><stop id="stop318" offset="1" stop-color="#fff"/></linearGradient><path id="path184" fill="url(#SVGID_1_)" stroke="#9aa3a7" stroke-miterlimit="10" stroke-width=".1" d="m 808.2,281.7 -133.7,60.7 133.7,79.1 133.7,-79.1 z" opacity=".6" style="fill:url(#SVGID_1_)"/><linearGradient id="linearGradient327" x1="741.385" x2="741.385" y1="556.178" y2="367.841" gradientUnits="userSpaceOnUse"><stop id="stop323" offset="0" stop-color="#5a6a83"/><stop id="stop325" offset="1" stop-color="#fff"/></linearGradient><path id="path191" fill="url(#SVGID_2_)" stroke="#9aa3a7" stroke-miterlimit="10" stroke-width=".1" d="M 674.5,367.8 808.2,556.2 V 446.8 Z" opacity=".45" style="fill:url(#SVGID_2_);opacity:.65187713"/><linearGradient id="linearGradient334" x1="808.221" x2="942" y1="462.009" y2="462.009" gradientUnits="userSpaceOnUse"><stop id="stop330" offset="0" stop-color="#9aa3a7"/><stop id="stop332" offset="1" stop-color="#fff"/></linearGradient><path id="path198" fill="url(#SVGID_3_)" stroke="#9aa3a7" stroke-miterlimit="10" stroke-width=".1" d="M 808.2,446.8 V 556.2 L 942,367.8 Z" opacity=".8" style="fill:url(#SVGID_3_);opacity:.90102389"/><linearGradient id="linearGradient341" x1="808.221" x2="674.549" y1="271.057" y2="271.057" gradientUnits="userSpaceOnUse"><stop id="stop337" offset="0" stop-color="#9aa3a7"/><stop id="stop339" offset="1" stop-color="#fff"/></linearGradient><path id="path205" fill="url(#SVGID_4_)" stroke="#9aa3a7" stroke-miterlimit="10" stroke-width=".1" d="m 674.5,342.4 133.7,79.1 V 120.6 Z" opacity=".45" style="fill:url(#SVGID_4_);opacity:.6996587"/><linearGradient id="linearGradient348" x1="808.221" x2="941.893" y1="271.057" y2="271.057" gradientUnits="userSpaceOnUse"><stop id="stop344" offset="0" stop-color="#9aa3a7"/><stop id="stop346" offset="1" stop-color="#fff"/></linearGradient><path id="path212" fill="url(#SVGID_5_)" stroke="#9aa3a7" stroke-miterlimit="10" stroke-width=".1" d="M 808.2,120.6 V 421.5 L 941.9,342.4 Z" opacity=".39" style="fill:url(#SVGID_5_);opacity:.60238908"/><g id="g252" transform="matrix(0.61220563,0,0,0.61220563,734.56334,307.73577)"><path id="path178" fill="url(#linearGradient-1)" d="m 88.499492,20.688527 c 9.1648,28.026086 12.636918,78.022075 39.436318,78.022075 v 0 c 2.0407,0 4.10191,-0.199615 6.1713,-0.593174 v 0 C 109.74514,92.437063 106.85785,42.984911 91.992028,17.375595 v 0 c -1.16561,1.059321 -2.322957,2.163524 -3.492536,3.312932" style="fill:url(#linearGradient-1)"/><path id="path180" fill="url(#linearGradient-2)" d="m 91.992028,17.375595 c 14.865822,25.609316 17.753112,75.061468 42.115082,80.741833 v 0 c 1.91392,-0.351676 3.83198,-0.883362 5.75408,-1.554066 v 0 C 117.99393,85.848547 111.94942,37.82797 95.067431,14.709144 v 0 c -1.022461,0.850957 -2.048891,1.742502 -3.075403,2.666451" style="fill:url(#linearGradient-2)"/><path id="path182" fill="#14559a" d="m 113.41121,2.1454582 c -2.03666,0 -4.10208,0.1995342 -6.17535,0.5931747 -5.42291,1.0223798 -10.931447,3.3574076 -16.485189,6.8908557 1.517124,1.4967904 2.960608,3.2102074 4.31838,5.0793314 5.647879,-4.686744 11.258899,-8.1505213 16.849579,-10.2323035 2.09782,-0.7769924 4.18779,-1.3616608 6.28561,-1.7460659 -1.51315,-0.3848101 -3.10813,-0.5849924 -4.79303,-0.5849924"/><path id="path184-3" fill="url(#linearGradient-3)" d="m 156.93137,86.686704 c 2.237,-1.778795 4.47814,-3.746107 6.72332,-5.892942 C 154.34261,52.898187 151.00959,2.1866937 124.022,2.1866937 c -1.93029,0 -3.87694,0.1799291 -5.81954,0.5397873 24.5828,6.1141874 27.73185,59.59842 38.72891,83.960223" style="fill:url(#linearGradient-3)"/><path id="path186" fill="#3092c4" d="M 118.20327,2.7284253 C 116.69011,2.3440202 115.09522,2.143838 113.41024,2.143838 l 10.61265,0.038886 c -1.93037,0 -3.87702,0.1799291 -5.81962,0.544081"/><path id="path188" fill="#1969bc" d="m 156.46004,92.61278 c -1.05511,-1.006015 -2.05691,-2.110218 -3.04268,-3.288061 -4.53954,3.21442 -9.06264,5.651848 -13.55698,7.238643 1.59887,0.781286 3.27559,1.362066 5.05479,1.721924 1.37802,0.281357 2.80547,0.425316 4.30622,0.425316 5.04264,0 9.02992,-0.597063 12.42427,-2.224769 -1.8688,-1.010309 -3.58246,-2.318987 -5.18562,-3.873053"/><path id="path190" fill="url(#linearGradient-4)" d="m 111.91669,4.4811342 c 22.01867,11.5163548 23.93259,63.6674428 41.50165,84.8435848 v 0 c 1.17784,-0.830056 2.34337,-1.709448 3.5089,-2.638015 v 0 C 145.93026,62.324901 142.78526,8.8363747 118.20659,2.726481 v 0 c -2.09798,0.3925874 -4.19192,0.9736912 -6.2899,1.7546532" style="fill:url(#linearGradient-4)"/><path id="path192" fill="url(#linearGradient-5)" d="M 95.067431,14.709144 C 111.94942,37.82797 117.99393,85.848547 139.86119,96.563362 v 0 c 4.4945,-1.586795 9.01768,-4.024223 13.55715,-7.238643 v 0 C 135.84928,68.148577 133.93536,15.997489 111.91669,4.4811342 v 0 C 106.32617,6.5586228 100.71523,10.0224 95.067431,14.709144" style="fill:url(#linearGradient-5)"/><path id="path194" fill="url(#linearGradient-6)" d="m 77.698317,20.013529 c -2.646035,5.983352 -5.349266,13.847494 -8.616911,24.112527 6.49843,-9.156861 12.976445,-17.045631 19.4176,-23.437529 -0.887413,-2.72794 -1.840284,-5.242978 -2.866795,-7.484355 -2.633722,2.016324 -5.28794,4.286218 -7.933894,6.809357" style="fill:url(#linearGradient-6)"/><path id="path196" fill="#2b74b1" d="m 87.97858,11.479008 c -0.777073,0.556152 -1.558035,1.124779 -2.34321,1.725812 1.02635,2.241134 1.975089,4.756415 2.862744,7.484031 1.169337,-1.145114 2.330735,-2.253286 3.492213,-3.312608 -1.24719,-2.143028 -2.572233,-4.12241 -4.011747,-5.897235"/><path id="path198-2" fill="#125a9e" d="m 90.750671,9.6294886 c -0.924273,0.5849924 -1.844253,1.2023094 -2.772739,1.8484654 1.439514,1.774907 2.764557,3.754289 4.016041,5.901529 1.026592,-0.928486 2.052941,-1.824 3.075402,-2.670663 -1.357772,-1.8688 -2.801256,-3.582541 -4.318704,-5.0793314"/><path id="path200" fill="url(#linearGradient-7)" d="M 240.93672,0.01126076 C 228.48361,48.035727 202.47353,86.609175 180.66759,96.334339 h -0.0413 c -0.39664,0.179929 -0.78931,0.343575 -1.17777,0.502846 -0.0535,0.0324 -0.10207,0.03645 -0.14331,0.0559 -0.11455,0.04618 -0.22084,0.08182 -0.33539,0.127595 -0.0535,0.0324 -0.10208,0.04294 -0.15109,0.06238 -0.1839,0.06562 -0.36399,0.121114 -0.54392,0.193053 -0.0778,0.0324 -0.15117,0.05266 -0.22513,0.07858 -0.0818,0.03241 -0.17604,0.06238 -0.26994,0.08838 -0.0817,0.0324 -0.16745,0.0559 -0.26175,0.09154 -0.0778,0.0324 -0.15959,0.04618 -0.23291,0.07858 -0.15968,0.04618 -0.30655,0.08506 -0.46623,0.140638 -0.0656,0 -0.12662,0.03565 -0.19629,0.05266 -0.0982,0.0324 -0.20877,0.0559 -0.31506,0.08506 -0.0737,0.0324 -0.1348,0.04294 -0.21266,0.05914 -0.11058,0.0324 -0.23331,0.06238 -0.34357,0.08839 -0.1472,0.0324 -0.27804,0.06238 -0.41714,0.09162 0.9856,0.364071 2.01212,0.54797 3.12045,0.54797 20.67718,0 41.52579,-37.056001 76.02204,-98.678684 h -13.54484 z" style="fill:url(#linearGradient-7)"/><path id="path202" fill="url(#linearGradient-8)" d="m 64.591036,4.0943797 c 0.01296,0 0.02916,-0.032405 0.03727,-0.032405 0.0162,0 0.04132,0 0.04942,-0.032405 h 0.02592 c 0.114471,-0.038886 0.220841,-0.085063 0.335312,-0.1275949 0.02916,0 0.04456,0 0.06562,-0.032405 0.02917,0 0.05752,-0.032405 0.08604,-0.036456 0.122734,-0.038886 0.245387,-0.085063 0.359939,-0.1275949 h 0.01944 c 0.274147,-0.081742 0.527554,-0.1831696 0.793357,-0.2780355 0.03727,0 0.07372,-0.032405 0.11844,-0.032405 0.110583,-0.035646 0.225135,-0.075342 0.339443,-0.1014279 0.05347,-0.032405 0.10637,-0.032405 0.155383,-0.049418 0.11844,-0.035646 0.233316,-0.075342 0.343574,-0.1014278 0.04942,0 0.09422,-0.032405 0.130836,-0.035646 0.380354,-0.1046684 0.756577,-0.2028557 1.136932,-0.294481 0.05347,0 0.09819,-0.032405 0.155382,-0.035646 0.110258,-0.032405 0.212739,-0.049418 0.331261,-0.06562 0.04942,-0.032405 0.106369,-0.032405 0.163645,-0.049418 0.110258,-0.032405 0.216547,-0.035645 0.335312,-0.06238 h 0.07777 c 0.229022,-0.046177 0.462177,-0.085063 0.6912,-0.1275949 h 0.139017 c 0.110259,-0.032405 0.208446,-0.035646 0.319028,-0.055899 0.06076,0 0.122653,-0.032405 0.179929,-0.032405 0.102076,0 0.204476,-0.032405 0.306552,-0.046177 0.05347,0 0.106289,0 0.167858,-0.032405 0.241094,-0.032405 0.490694,-0.045367 0.744264,-0.06562 -0.715668,-0.06886 -1.45183,-0.1145508 -2.200225,-0.1145508 -23.286376,0 -55.369576,43.206886 -69.82235551,99.161278 H 2.9616446 C 7.5870218,93.03761 11.742096,85.234552 15.541371,77.909873 25.663222,38.277347 46.27908,11.24877 64.592494,4.0879797" style="fill:url(#linearGradient-8)"/><path id="path204" fill="#0d82ca" d="M 77.69856,20.013529 C 80.344677,17.49039 82.998732,15.220496 85.632454,13.204496 85.031421,11.887635 84.409811,10.668881 83.742995,9.5522835 81.612443,12.136911 79.66579,15.547706 77.69856,20.013529"/><path id="path206" fill="#0d82ca" d="m 79.611512,4.4219139 c 1.521337,1.2759494 2.882997,3.0305215 4.130511,5.132638 0.392588,-0.4825924 0.789469,-0.9284861 1.20239,-1.3456202 -1.729782,-1.6153115 -3.598906,-2.9403545 -5.627382,-3.9381874 0.08182,0.045367 0.163564,0.081823 0.248628,0.1177924 0,0 0.0324,0.032405 0.04618,0.032405"/><path id="path208" fill="url(#linearGradient-9)" d="M 15.540326,77.914653 C 36.773719,36.997671 46.834228,11.102056 64.591441,4.0924354 v 0 C 46.282127,11.257762 25.662177,38.286015 15.540326,77.914653" style="fill:url(#linearGradient-9)"/><path id="path210" fill="#127bca" d="m 84.943036,8.2078785 c -0.412841,0.4214278 -0.805428,0.8631088 -1.202309,1.3457013 0.666734,1.1162732 1.288101,2.3310582 1.893671,3.6518882 0.785175,-0.601033 1.566137,-1.16966 2.34321,-1.725812 -0.960891,-1.186026 -1.97517,-2.2860155 -3.034572,-3.2717775"/><path id="path212-3" fill="url(#linearGradient-10)" d="m 25.179601,101.10712 v 0 c -0.130868,0.0324 -0.261736,0.0324 -0.384429,0.0462 h -0.07364 c -0.110582,0 -0.225094,0.0324 -0.32717,0.0324 h -0.05331 c -0.265665,0.0324 -0.527562,0.0324 -0.781124,0.0527 h -0.08179 C 44.969187,100.637 54.792474,89.876982 59.66733,74.270947 63.372525,62.439777 66.415279,52.473195 69.08173,44.110015 60.080413,56.779747 51.038185,71.882613 41.946945,88.801539 37.562848,96.956273 30.896745,100.36278 25.179431,101.09108" style="fill:url(#linearGradient-10)"/><path id="path214" fill="url(#linearGradient-11)" d="m 25.179601,101.09894 v 0 c 5.717314,-0.72831 12.383425,-4.130839 16.767514,-12.289542 v 0 C 51.038347,71.894683 60.084626,56.787605 69.07776,44.117873 v 0 c 3.271696,-10.269245 5.970876,-18.129174 8.620962,-24.112526 v 0 C 59.773861,37.067342 41.779435,65.437327 25.179601,101.09075" style="fill:url(#linearGradient-11)"/><path id="path216" fill="#05a1e6" d="M 15.539313,77.915625 C 11.740201,85.240304 7.5851342,93.043362 2.9595868,101.29199 h 8.1017352 c 1.07149,-8.191757 2.592835,-16.002917 4.477991,-23.372476"/><path id="path218" fill="url(#linearGradient-12)" d="m 71.453861,2.3260354 c -0.06562,0 -0.114552,0.032405 -0.171747,0.032405 v 0 c -0.09819,0.032405 -0.200587,0.032405 -0.302663,0.042937 v 0 c -0.06076,0 -0.11844,0 -0.179929,0.032405 v 0 c -0.110582,0.032405 -0.212658,0.035646 -0.319028,0.055899 v 0 c -0.04942,0 -0.09811,0 -0.139018,0.032405 v 0 c -0.233316,0.038886 -0.462177,0.081823 -0.691199,0.1210329 v 0 h -0.07777 v 0 c -0.11844,0.032405 -0.225053,0.049418 -0.335311,0.06562 v 0 c -0.05752,0.032405 -0.114552,0.032405 -0.167858,0.045367 v 0 c -0.110259,0.032405 -0.220841,0.046177 -0.327129,0.06562 v 0 c -0.05752,0.032405 -0.102076,0.032405 -0.155464,0.035646 v 0 c -0.380273,0.091625 -0.756577,0.1898126 -1.136931,0.294481 v 0 c -0.04051,0 -0.08174,0.032405 -0.130836,0.038886 v 0 c -0.114471,0.032405 -0.225053,0.06562 -0.343494,0.1014279 v 0 c -0.04942,0.032405 -0.106369,0.032405 -0.155463,0.045367 v 0 c -0.114471,0.032405 -0.229023,0.06562 -0.339443,0.1014278 v 0 c -0.04456,0 -0.08174,0.032405 -0.122653,0.032405 v 0 C 66.09617,3.5674734 65.83855,3.6656608 65.568616,3.7474835 v 0 0 0 c -0.114471,0.035646 -0.237205,0.081742 -0.359858,0.1242735 v 0 c -0.04942,0.032405 -0.09422,0.039696 -0.15117,0.06238 v 0 C 64.943036,3.969783 64.828565,4.01596 64.722195,4.0584914 v 0 c -0.04051,0.032405 -0.08174,0.035646 -0.110258,0.052658 v 0 C 46.854765,11.12077 36.794256,37.016385 15.560863,77.933367 v 0 C 13.675536,85.302927 12.1501,93.114086 11.08271,101.30552 v 0 h 1.136915 c 3.202188,0 4.105997,-0.0324 7.790761,-0.0324 v 0 h 0.188119 0.54801 0.188128 0.05331 0.18812 0.106329 0.07364 0.147225 0.458045 0.458038 0.384421 0.102084 0.674787 v 0 c 0.253553,-0.0324 0.515297,-0.0324 0.781124,-0.0526 v 0 h 0.04909 v 0 c 0.110582,0 0.22084,-0.0324 0.327169,-0.0324 v 0 h 0.07753 v 0 c 0.118433,0 0.253554,-0.0324 0.384422,-0.0462 v 0 C 41.799818,65.488446 59.794195,37.118461 77.719056,20.056466 v 0 c 1.9712,-4.465823 3.913803,-7.876618 6.040466,-10.4570331 v 0 C 82.516221,7.4973975 81.154398,5.7388557 79.633061,4.4625823 v 0 c 0,0 -0.04132,0 -0.04456,-0.032405 v 0 c -0.08603,-0.035646 -0.167453,-0.078582 -0.253488,-0.1210329 v 0 c -0.08611,-0.046177 -0.159673,-0.081823 -0.249354,-0.127595 v 0 C 79.007887,4.1491443 78.917881,4.1062076 78.840271,4.063757 v 0 C 78.733983,4.0313519 78.647947,3.9851747 78.554054,3.942643 v 0 C 78.476284,3.910238 78.406773,3.877023 78.328919,3.844537 v 0 C 78.169243,3.782157 78.009973,3.7169418 77.858641,3.648243 v 0 C 77.78897,3.615838 77.723836,3.5988253 77.658054,3.5729013 v 0 C 77.547795,3.5332051 77.420849,3.481276 77.306378,3.4321823 v 0 c -0.05752,-0.032405 -0.122734,-0.038886 -0.188112,-0.06238 v 0 c -0.167534,-0.055899 -0.33126,-0.1144708 -0.486724,-0.166886 v 0 h -0.04051 v 0 C 76.402844,3.1405367 76.218864,3.0950076 76.026621,3.0425924 v 0 c -0.04456,-0.032405 -0.08182,-0.032405 -0.126623,-0.038886 v 0 C 75.73214,2.9575291 75.58494,2.912081 75.425588,2.8695494 v 0 c -0.04051,0 -0.07777,-0.032405 -0.110258,-0.032405 v 0 C 74.930925,2.7357165 74.534206,2.6539747 74.133436,2.5787139 v 0 c -0.04132,0 -0.08174,-0.032405 -0.122653,-0.032405 v 0 c -0.171747,-0.032405 -0.339443,-0.06238 -0.51119,-0.081823 v 0 C 73.458276,2.432081 73.433973,2.432081 73.397517,2.432081 v 0 C 73.193041,2.3996759 72.992616,2.3761823 72.79219,2.3534987 v 0 h -0.106288 v 0 c -0.163565,-0.032405 -0.314734,-0.035645 -0.466228,-0.052658 v 0 c -0.257782,0.032405 -0.503008,0.046177 -0.744344,0.068861" style="fill:url(#linearGradient-12)"/><path id="path220" fill="url(#linearGradient-13)" d="m 192.29445,26.597833 c -4.08555,13.086866 -7.39411,23.883504 -10.27314,32.766218 v 0 c 11.20964,-15.426107 22.25167,-34.831636 32.7663,-57.2261269 v 0 C 202.52262,5.9899949 195.97923,14.807575 192.29445,26.597833" style="fill:url(#linearGradient-13)"/><path id="path222" fill="url(#linearGradient-14)" d="m 182.37704,95.516435 c -0.57252,0.29116 -1.14503,0.568304 -1.70945,0.817904 21.80594,-9.725164 47.81602,-48.298612 60.26913,-96.32307824 h -2.52347 C 209.80217,51.119311 200.60051,85.333225 182.37704,95.516435" style="fill:url(#linearGradient-14)"/><path id="path224" fill="#079ae1" d="m 168.13809,91.222602 c 4.74394,-5.790865 8.60849,-15.63447 13.88444,-31.858227 -6.08567,8.35921 -12.21161,15.544871 -18.34216,21.405164 0,0.03241 0,0.03241 -0.0324,0.05266 1.33752,4.007858 2.80547,7.545194 4.4783,10.399756"/><path id="path226" fill="#1969bc" d="m 168.13809,91.222602 c -1.61555,1.971281 -3.32476,3.472284 -5.22661,4.584669 -0.41713,0.242147 -0.83816,0.470197 -1.26777,0.678886 2.00823,1.083625 4.19994,1.807635 6.65366,2.097823 v 0 c 0.35961,0.03565 0.71558,0.06886 1.08791,0.09487 h 0.0656 c 0.16689,0 0.34358,0 0.52351,0.03241 h 0.0721 0.5359 0.57681 0.18001 0.40895 c 0.0656,0 0.13408,0 0.19953,-0.03241 0.1276,0 0.26176,0 0.39259,-0.03241 h 0.0462 0.1472 c 0.13416,0 0.28136,-0.0324 0.42531,-0.04618 h 0.0324 c 0.0429,0 0.0883,-0.0324 0.13084,-0.0324 0.15052,-0.0324 0.3076,-0.04618 0.45415,-0.06886 h 0.13416 c 0.1668,-0.03241 0.33928,-0.05266 0.51103,-0.08506 h 0.0324 0.0494 c 0.34357,-0.06562 0.67889,-0.130835 1.01817,-0.215899 -2.81365,-1.030643 -5.16926,-3.459888 -7.19773,-6.919696"/><path id="path228" fill="#1e5cb3" d="m 127.93629,98.711251 c 2.04087,0 4.10208,-0.199534 6.17138,-0.597064 1.91401,-0.347463 3.8319,-0.879473 5.75401,-1.550177 1.59919,0.781286 3.27591,1.362066 5.05081,1.721924 1.37811,0.281357 2.80944,0.425317 4.31053,0.425317 z"/><path id="path230" fill="#1e5cb3" d="m 149.22334,98.711251 c 5.03842,0 9.02991,-0.597064 12.42037,-2.22477 2.0079,1.083625 4.19994,1.807635 6.65366,2.098147 v 0 c 0.35993,0.03565 0.7159,0.06886 1.08791,0.09487 h 0.0656 c 0.16689,0 0.34358,0 0.52351,0.0324 h 0.0753 0.5359 -21.37673 z"/><path id="path232" fill="#1d60b5" d="m 170.59837,98.711251 h 0.58078 0.17993 0.40506 c 0.0689,0 0.13408,0 0.19953,-0.03241 0.1276,0 0.26176,0 0.39688,-0.03241 h 0.0429 0.15052 c 0.13408,0 0.28136,-0.0324 0.42135,-0.04537 h 0.0357 c 0.0429,0 0.0851,-0.0324 0.12759,-0.0324 0.15052,-0.0324 0.30761,-0.04537 0.45383,-0.06886 0.0494,0 0.0883,0 0.14064,-0.0324 0.16689,-0.03241 0.33961,-0.04942 0.51143,-0.08174 h 0.0324 0.0494 c 0.34357,-0.06562 0.67888,-0.130917 1.01816,-0.21598 v 0 c 0.98544,0.363828 2.01212,0.548051 3.12021,0.548051 l -7.86026,0.0324 z"/><path id="path234" fill="#175fab" d="m 163.66109,80.822846 v -0.0324 c -2.2451,2.146916 -4.48624,4.114227 -6.7234,5.893022 -1.16966,0.928486 -2.33503,1.807636 -3.51279,2.638015 0.98544,1.177762 1.98756,2.281965 3.04267,3.288061 1.60316,1.553742 3.3165,2.862745 5.18562,3.872729 0.42532,-0.209417 0.85064,-0.437792 1.26356,-0.678886 1.90574,-1.112385 3.61527,-2.613144 5.23082,-4.584344 -1.67283,-2.854562 -3.14086,-6.392304 -4.4783,-10.400081"/><path id="path236" fill="url(#linearGradient-15)" d="m 230.42216,0.01126076 h -10.60852 -1.05519 v 0 h -0.99783 v 0 h -0.0389 c -0.68707,0.03240506 -1.35348,0.05589873 -2.01211,0.09818734 v 0 c -0.31077,0.66681519 -0.62979,1.3335494 -0.93667,2.0042532 v 0 C 204.25864,24.508192 193.21662,43.913721 182.00697,59.339828 v 0 c -5.27157,16.223433 -9.14033,26.067362 -13.88435,31.858309 v 0 c 2.02848,3.459807 4.38821,5.892941 7.19368,6.923585 v 0 c 0.0818,-0.03241 0.1472,-0.03241 0.22084,-0.04942 v 0 h 0.0454 v 0 c 0.0494,0 0.10207,-0.0324 0.15546,-0.0324 v 0 c 0.11447,-0.03241 0.23721,-0.05266 0.35168,-0.0883 v 0 c 0.0737,-0.0324 0.1348,-0.03565 0.20877,-0.05914 v 0 c 0.10629,-0.0324 0.21654,-0.0559 0.31473,-0.08182 v 0 c 0.0656,-0.0324 0.13084,-0.04294 0.1963,-0.0559 v 0 c 0.16356,-0.05266 0.31076,-0.09162 0.46622,-0.140719 v 0 c 0.0737,-0.0324 0.1515,-0.05914 0.23324,-0.07858 v 0 c 0.09,-0.0324 0.17993,-0.0559 0.26175,-0.09487 v 0 c 0.0942,-0.0324 0.18811,-0.04942 0.26993,-0.08506 v 0 c 0.0737,-0.0324 0.15117,-0.05266 0.22085,-0.08182 v 0 c 0.18381,-0.06562 0.36399,-0.121033 0.54797,-0.193053 v 0 c 0.0494,0 0.0982,-0.04537 0.15149,-0.0559 v 0 c 0.11026,-0.04618 0.22481,-0.08182 0.33539,-0.130916 v 0 c 0.0405,-0.0324 0.0899,-0.03565 0.14291,-0.05266 v 0 c 0.38448,-0.160324 0.78112,-0.323888 1.17784,-0.502845 v 0 h 0.0413 v 0 c 0.56433,-0.248628 1.13693,-0.527717 1.70539,-0.817904 v 0 C 200.59128,85.337195 209.7931,51.123281 238.40418,0.01523038 v 0 h -7.99117 z" style="fill:url(#linearGradient-15)"/><path id="path238" fill="#7dcbec" d="m 72.199016,2.2570127 c 0.04537,0 0.08603,0 0.130835,0.032405 0.110258,0 0.220841,0 0.331261,0.035646 h 0.110582 c 0.200264,0.032405 0.40077,0.049418 0.605246,0.078582 0.03727,0 0.06967,0 0.102076,0.032405 0.167534,0.032405 0.339443,0.059139 0.51119,0.085063 0.03727,0 0.08612,0.032405 0.126946,0.032405 0.392669,0.078582 0.793438,0.160324 1.177843,0.2617519 0.03646,0 0.07372,0.032405 0.10637,0.032405 0.163565,0.038886 0.310765,0.088304 0.474329,0.1340759 0.04942,0 0.08571,0.032405 0.130917,0.039696 0.192324,0.049418 0.372172,0.098187 0.560283,0.1603241 0.0081,0 0.01944,0 0.04132,0.032405 0.159271,0.048608 0.322916,0.1112304 0.490693,0.1668051 0.06562,0.032405 0.126623,0.046177 0.188112,0.06238 0.114552,0.049418 0.241498,0.098106 0.351757,0.1439595 0.06562,0 0.130835,0.045367 0.200182,0.068861 0.15117,0.068861 0.310845,0.1308354 0.466228,0.1962937 0.08182,0.032405 0.151169,0.068861 0.229023,0.098106 0.09001,0.046177 0.183898,0.088385 0.282086,0.1211139 0.08174,0.038886 0.171747,0.081742 0.249276,0.1177114 0.08603,0.046177 0.167534,0.081823 0.2496,0.1275949 2.028475,0.997914 3.897438,2.3271696 5.627382,3.9385114 C 85.580525,7.5848101 86.247097,6.9834532 86.938297,6.4436658 83.15533,3.7608506 78.869436,2.2313317 73.925071,2.2313317 c -0.572597,0 -1.145114,0.032405 -1.725812,0.075342"/><path id="path240" fill="#5ec5ed" d="m 84.943117,8.2078785 c 1.059241,0.985438 2.073438,2.0857515 3.034491,3.2717775 0.928324,-0.646157 1.848547,-1.267848 2.77282,-1.8485471 -1.210572,-1.2105722 -2.486521,-2.2984102 -3.815696,-3.2350785 -0.691119,0.5358987 -1.35364,1.1411443 -1.991615,1.8118481"/><path id="path242" fill="url(#linearGradient-16)" d="m 72.198042,6.2846314 c 0.580729,0.049076 1.153278,0.069524 1.725827,0.069524 4.944372,0 9.230311,-1.5295243 13.013226,-4.2082366 3.991485,3.1490206 8.817257,4.249133 15.520175,4.249133 H 69.997818 c 0.748403,0 1.480448,-0.044986 2.200224,-0.1104202" transform="matrix(1,0,0,-1,0,8.54097)" style="fill:url(#linearGradient-16)"/><path id="path244" fill="url(#linearGradient-17)" d="m 102.45727,9.6299545 c -6.702918,0 -11.52869,-1.1001124 -15.520175,-4.2491329 1.325042,-0.9365269 2.601009,-2.0243704 3.811541,-3.234903 5.557817,3.5334465 11.062464,5.8727189 16.489414,6.8951282 2.06936,0.3885155 4.13463,0.5889077 6.17127,0.5889077 z" transform="matrix(1,0,0,-1,0,11.775874)" style="fill:url(#linearGradient-17)"/><path id="path246" fill="url(#linearGradient-18)" d="m 182.02131,59.372233 c 2.88316,-8.890896 6.18346,-19.683241 10.27719,-32.7744 3.68891,-11.794471 10.22007,-20.6117267 22.48482,-24.4599089 0.32397,-0.658633 0.62987,-1.33751904 0.94493,-2.00425321 C 195.73384,1.3320911 186.38903,11.502825 181.68592,26.565185 c -8.22424,26.296304 -13.20547,43.341934 -18.00255,54.20403 6.12626,-5.856405 12.25252,-13.045954 18.33794,-21.396982" style="fill:url(#linearGradient-18)"/></g></g></g></svg>