<svg xmlns="http://www.w3.org/2000/svg" xmlns:svg="http://www.w3.org/2000/svg" id="svg362" width="210mm" height="297mm" version="1.1" viewBox="0 0 210 297"><defs id="defs356"><linearGradient id="SVGID_1_" x1="808.221" x2="808.221" y1="421.545" y2="281.681" gradientUnits="userSpaceOnUse"><stop id="stop179" offset="0" stop-color="#5a6a83"/><stop id="stop181" offset="1" stop-color="#fff"/></linearGradient><linearGradient id="SVGID_2_" x1="741.385" x2="741.385" y1="556.178" y2="367.841" gradientUnits="userSpaceOnUse"><stop id="stop186" offset="0" stop-color="#5a6a83"/><stop id="stop188" offset="1" stop-color="#fff"/></linearGradient><linearGradient id="SVGID_3_" x1="808.221" x2="942" y1="462.009" y2="462.009" gradientUnits="userSpaceOnUse"><stop id="stop193" offset="0" stop-color="#9aa3a7"/><stop id="stop195" offset="1" stop-color="#fff"/></linearGradient><linearGradient id="SVGID_4_" x1="808.221" x2="674.549" y1="271.057" y2="271.057" gradientUnits="userSpaceOnUse"><stop id="stop200" offset="0" stop-color="#9aa3a7"/><stop id="stop202" offset="1" stop-color="#fff"/></linearGradient><linearGradient id="SVGID_5_" x1="808.221" x2="941.893" y1="271.057" y2="271.057" gradientUnits="userSpaceOnUse"><stop id="stop207" offset="0" stop-color="#9aa3a7"/><stop id="stop209" offset="1" stop-color="#fff"/></linearGradient><linearGradient id="linearGradient-1" x1="148.636" x2="148.636" y1="1.125" y2="91.96" gradientTransform="scale(0.74882432,1.3354267)" gradientUnits="userSpaceOnUse"><stop id="stop2" offset="0%" stop-color="#0994DC"/><stop id="stop4" offset="35.001%" stop-color="#66CEF5"/><stop id="stop6" offset="35.001%" stop-color="#66CEF5"/><stop id="stop8" offset="84.616%" stop-color="#127BCA"/><stop id="stop10" offset="84.616%" stop-color="#127BCA"/><stop id="stop12" offset="100%" stop-color="#127BCA"/></linearGradient><linearGradient id="linearGradient-2" x1="153.025" x2="153.025" y1="-1.189" y2="93.05" gradientTransform="scale(0.75757096,1.3200084)" gradientUnits="userSpaceOnUse"><stop id="stop15" offset="0%" stop-color="#0E76BC"/><stop id="stop17" offset="36%" stop-color="#36AEE8"/><stop id="stop19" offset="36%" stop-color="#36AEE8"/><stop id="stop21" offset="84.616%" stop-color="#00ADEF"/><stop id="stop23" offset="84.616%" stop-color="#00ADEF"/><stop id="stop25" offset="100%" stop-color="#00ADEF"/></linearGradient><linearGradient id="linearGradient-3" x1="192.154" x2="192.154" y1="70.346" y2="-2.247" gradientTransform="scale(0.73341404,1.3634863)" gradientUnits="userSpaceOnUse"><stop id="stop28" offset="0%" stop-color="#1C63B7"/><stop id="stop30" offset="50%" stop-color="#33BDF2"/><stop id="stop32" offset="100%" stop-color="#33BDF2" stop-opacity=".42"/></linearGradient><linearGradient id="linearGradient-4" x1="186.453" x2="186.453" y1="-10.218" y2="82.895" gradientTransform="scale(0.72094583,1.3870668)" gradientUnits="userSpaceOnUse"><stop id="stop35" offset="0%" stop-color="#166AB8"/><stop id="stop37" offset="39.999%" stop-color="#36AEE8"/><stop id="stop39" offset="39.999%" stop-color="#36AEE8"/><stop id="stop41" offset="84.616%" stop-color="#0798DD"/><stop id="stop43" offset="84.616%" stop-color="#0798DD"/><stop id="stop45" offset="100%" stop-color="#0798DD"/></linearGradient><linearGradient id="linearGradient-5" x1="156.075" x2="156.075" y1="-10.742" y2="98.585" gradientTransform="scale(0.79604186,1.2562154)" gradientUnits="userSpaceOnUse"><stop id="stop48" offset="0%" stop-color="#124379"/><stop id="stop50" offset="39%" stop-color="#1487CB"/><stop id="stop52" offset="39%" stop-color="#1487CB"/><stop id="stop54" offset="78.023%" stop-color="#165197"/><stop id="stop56" offset="78.023%" stop-color="#165197"/><stop id="stop58" offset="100%" stop-color="#165197"/></linearGradient><linearGradient id="linearGradient-6" x1="87.176" x2="111.68" y1="22.715" y2="22.715" gradientTransform="scale(0.7924371,1.2619298)" gradientUnits="userSpaceOnUse"><stop id="stop61" offset="0%" stop-color="#33BDF2" stop-opacity=".698"/><stop id="stop63" offset="100%" stop-color="#1DACD8"/></linearGradient><linearGradient id="linearGradient-7" x1="239.977" x2="239.977" y1="83.677" y2="-2.673" gradientTransform="scale(0.89555689,1.1166236)" gradientUnits="userSpaceOnUse"><stop id="stop66" offset="0%" stop-color="#136AB4"/><stop id="stop68" offset="60%" stop-color="#59CAF5" stop-opacity=".549"/><stop id="stop70" offset="100%" stop-color="#59CAF5" stop-opacity=".235"/></linearGradient><linearGradient id="linearGradient-8" x1=".207" x2="84.716" y1="44.065" y2="44.065" gradientTransform="scale(0.85224268,1.1733747)" gradientUnits="userSpaceOnUse"><stop id="stop73" offset="0%" stop-color="#05A1E6" stop-opacity=".247"/><stop id="stop75" offset="100%" stop-color="#05A1E6"/></linearGradient><linearGradient id="linearGradient-9" x1="49.151" x2="49.151" y1="78.142" y2="-2.333" gradientTransform="scale(0.81513755,1.2267868)" gradientUnits="userSpaceOnUse"><stop id="stop78" offset="0%" stop-color="#318ED5"/><stop id="stop80" offset="100%" stop-color="#38A7E4"/></linearGradient><linearGradient id="linearGradient-10" x1="51.798" x2="51.798" y1="85.96" y2=".218" gradientTransform="scale(0.89345663,1.1192485)" gradientUnits="userSpaceOnUse"><stop id="stop83" offset="0%" stop-color="#05A1E6"/><stop id="stop85" offset="100%" stop-color="#05A1E6" stop-opacity=".549"/></linearGradient><linearGradient id="linearGradient-11" x1="63.919" x2="63.919" y1="81.367" y2="16.106" gradientTransform="scale(0.80475828,1.2426091)" gradientUnits="userSpaceOnUse"><stop id="stop88" offset="0%" stop-color="#1959A6"/><stop id="stop90" offset="50%" stop-color="#05A1E6"/><stop id="stop92" offset="50%" stop-color="#05A1E6"/><stop id="stop94" offset="91.759%" stop-color="#7EC5EA"/><stop id="stop96" offset="100%" stop-color="#7EC5EA"/></linearGradient><linearGradient id="linearGradient-12" x1="63.664" x2="45.569" y1="82.189" y2="6.853" gradientTransform="scale(0.85678149,1.1671587)" gradientUnits="userSpaceOnUse"><stop id="stop99" offset="0%" stop-color="#165096"/><stop id="stop101" offset="100%" stop-color="#0D82CA"/></linearGradient><linearGradient id="linearGradient-13" x1="262.199" x2="262.199" y1="34.96" y2=".189" gradientTransform="scale(0.75668744,1.3215496)" gradientUnits="userSpaceOnUse"><stop id="stop104" offset="0%" stop-color="#05A1E6"/><stop id="stop106" offset="87.363%" stop-color="#0495D6"/><stop id="stop108" offset="100%" stop-color="#0495D6"/></linearGradient><linearGradient id="linearGradient-14" x1="278.127" x2="254.507" y1="-3.162" y2="80.654" gradientTransform="scale(0.79101057,1.2642056)" gradientUnits="userSpaceOnUse"><stop id="stop111" offset="0%" stop-color="#38A7E4" stop-opacity=".329"/><stop id="stop113" offset="96.153%" stop-color="#0E88D3"/><stop id="stop115" offset="96.153%" stop-color="#0E88D3"/><stop id="stop117" offset="100%" stop-color="#0E88D3"/></linearGradient><linearGradient id="linearGradient-15" x1="240.171" x2="240.171" y1="-.236" y2="84.611" gradientTransform="scale(0.84637541,1.1815088)" gradientUnits="userSpaceOnUse"><stop id="stop120" offset="0%" stop-color="#168CD4"/><stop id="stop122" offset="50%" stop-color="#1C87CC"/><stop id="stop124" offset="100%" stop-color="#154B8D"/></linearGradient><linearGradient id="linearGradient-16" x1="27.284" x2="35.639" y1="30.073" y2="3.601" gradientTransform="scale(2.7638879,0.36180917)" gradientUnits="userSpaceOnUse"><stop id="stop127" offset="0%" stop-color="#97D6EE"/><stop id="stop129" offset="70.329%" stop-color="#55C1EA"/><stop id="stop131" offset="100%" stop-color="#55C1EA"/></linearGradient><linearGradient id="linearGradient-17" x1="47.195" x2="56.892" y1="4.923" y2="20.472" gradientTransform="scale(1.8807336,0.5317074)" gradientUnits="userSpaceOnUse"><stop id="stop134" offset="0%" stop-color="#7ACCEC"/><stop id="stop136" offset="100%" stop-color="#3FB7ED"/></linearGradient><linearGradient id="linearGradient-18" x1="236.13" x2="236.13" y1="4.229" y2="83.003" gradientTransform="scale(0.80338875,1.2447274)" gradientUnits="userSpaceOnUse"><stop id="stop139" offset="0%" stop-color="#1DA7E7"/><stop id="stop141" offset="100%" stop-color="#37ABE7" stop-opacity="0"/></linearGradient></defs><metadata id="metadata359"/><g id="layer1"><g id="Logo" transform="matrix(0.26458333,0,0,0.26458333,-122.37925,11.009706)"><linearGradient id="linearGradient320" x1="808.221" x2="808.221" y1="421.545" y2="281.681" gradientUnits="userSpaceOnUse"><stop id="stop316" offset="0" stop-color="#5a6a83"/><stop id="stop318" offset="1" stop-color="#fff"/></linearGradient><path id="path184" fill="url(#SVGID_1_)" stroke="#9aa3a7" stroke-miterlimit="10" stroke-width=".1" d="m 808.2,281.7 -133.7,60.7 133.7,79.1 133.7,-79.1 z" opacity=".6" style="fill:url(#SVGID_1_)"/><linearGradient id="linearGradient327" x1="741.385" x2="741.385" y1="556.178" y2="367.841" gradientUnits="userSpaceOnUse"><stop id="stop323" offset="0" stop-color="#5a6a83"/><stop id="stop325" offset="1" stop-color="#fff"/></linearGradient><path id="path191" fill="url(#SVGID_2_)" stroke="#9aa3a7" stroke-miterlimit="10" stroke-width=".1" d="M 674.5,367.8 808.2,556.2 V 446.8 Z" opacity=".45" style="fill:url(#SVGID_2_)"/><linearGradient id="linearGradient334" x1="808.221" x2="942" y1="462.009" y2="462.009" gradientUnits="userSpaceOnUse"><stop id="stop330" offset="0" stop-color="#9aa3a7"/><stop id="stop332" offset="1" stop-color="#fff"/></linearGradient><path id="path198" fill="url(#SVGID_3_)" stroke="#9aa3a7" stroke-miterlimit="10" stroke-width=".1" d="M 808.2,446.8 V 556.2 L 942,367.8 Z" opacity=".8" style="fill:url(#SVGID_3_)"/><linearGradient id="linearGradient341" x1="808.221" x2="674.549" y1="271.057" y2="271.057" gradientUnits="userSpaceOnUse"><stop id="stop337" offset="0" stop-color="#9aa3a7"/><stop id="stop339" offset="1" stop-color="#fff"/></linearGradient><path id="path205" fill="url(#SVGID_4_)" stroke="#9aa3a7" stroke-miterlimit="10" stroke-width=".1" d="m 674.5,342.4 133.7,79.1 V 120.6 Z" opacity=".45" style="fill:url(#SVGID_4_)"/><linearGradient id="linearGradient348" x1="808.221" x2="941.893" y1="271.057" y2="271.057" gradientUnits="userSpaceOnUse"><stop id="stop344" offset="0" stop-color="#9aa3a7"/><stop id="stop346" offset="1" stop-color="#fff"/></linearGradient><path id="path212" fill="url(#SVGID_5_)" stroke="#9aa3a7" stroke-miterlimit="10" stroke-width=".1" d="M 808.2,120.6 V 421.5 L 941.9,342.4 Z" opacity=".39" style="fill:url(#SVGID_5_)"/><g id="g252" transform="matrix(0.61220563,0,0,0.61220563,734.56334,307.73577)"><circle id="circle214" cx="124.227" cy="36.069" r="100.62" class="st2" style="fill:#5c2d91;stroke-width:1.63344"/><path id="path218" fill="#fff" d="m 46.536772,58.739956 a 4.4625529,4.4625529 0 0 1 -4.410276,-4.410277 4.4625529,4.4625529 0 0 1 4.410276,-4.410281 4.4625529,4.4625529 0 0 1 4.410271,4.410281 4.4625529,4.4625529 0 0 1 -4.410271,4.410277 z m 62.397268,-0.81672 h -8.16719 L 71.365,12.187022 C 70.711619,11.043625 70.058249,9.9002158 69.568224,8.5934648 h -0.32669 c 0.32669,2.6134962 0.32669,5.2269972 0.32669,7.8404932 V 57.923236 H 62.871132 V 0.58962736 H 71.52834 L 100.27681,45.509122 c 1.14341,1.796775 1.96013,3.103526 2.28682,3.756906 h 0.16334 c -0.32669,-2.776846 -0.49003,-5.553683 -0.49003,-8.493873 V 0.42628736 h 6.6971 z m 45.40958,0 H 123.96167 V 0.58962736 h 29.0752 V 6.6333396 H 130.82211 V 25.744546 h 20.74466 v 6.043712 h -20.74466 v 19.927926 h 23.68485 z M 199.26317,6.6333396 H 182.6021 V 57.923236 H 175.905 V 6.6333396 H 159.40727 V 0.58962736 h 39.8559 z" style="stroke-width:1.63344"/><g id="layer1-2" transform="matrix(0.08912099,0,0,0.0842854,93.320977,77.057781)"><path id="path2417" d="M 297.29747,550.86823 C 283.52243,535.43191 249.1268,505.33855 220.86277,483.99412 137.11867,420.75228 125.72108,411.5999 91.719238,380.29088 29.03471,322.57071 2.413622,264.58086 2.5048478,185.95124 2.5493594,147.56739 5.1656152,132.77929 15.914734,110.15398 34.151433,71.768267 61.014996,43.244667 95.360052,25.799457 119.68545,13.443675 131.6827,7.9542046 172.30448,7.7296236 c 42.49329,-0.234834 51.43863,4.7197234 76.43471,18.4518354 30.42451,16.714318 61.7399,52.435708 68.21323,77.810591 l 3.9981,15.6724 9.85963,-21.584508 c 55.71617,-121.972928 233.59836,-120.148052 295.50229,3.031588 19.63767,39.07605 21.79364,122.51317 4.38012,169.51287 -22.71527,61.30937 -65.38001,108.05053 -164.00634,179.67658 -64.68082,46.97364 -137.88474,118.04586 -142.98067,128.02803 -5.91548,11.58753 -0.28216,1.8159 -26.40808,-27.46078 z" style="fill:red"/></g></g></g></g></svg>